<?xml version="1.0" encoding="utf-8"?>
<svg viewBox="0 0 32 32" xmlns="http://www.w3.org/2000/svg">
  <title>file_type_typescript</title>
  <path d="M 26.372 6.031 C 27.424 6.275 28.38 6.826 29.119 7.614 C 29.527 8.04 29.88 8.515 30.172 9.027 C 30.186 9.082 28.276 10.365 27.118 11.081 C 27.076 11.109 26.909 10.928 26.72 10.648 C 26.29 9.909 25.511 9.442 24.656 9.412 C 23.325 9.321 22.467 10.018 22.473 11.184 C 22.462 11.47 22.527 11.754 22.662 12.007 C 22.955 12.612 23.499 12.976 25.207 13.716 C 28.352 15.07 29.702 15.962 30.535 17.23 C 31.488 18.852 31.676 20.812 31.049 22.586 C 30.182 24.543 28.321 25.875 26.189 26.065 C 25.076 26.193 23.952 26.181 22.842 26.031 C 21.141 25.751 19.575 24.935 18.372 23.702 C 17.918 23.19 17.533 22.62 17.228 22.007 C 17.356 21.912 17.491 21.826 17.632 21.75 C 17.827 21.639 18.566 21.214 19.263 20.81 L 20.529 20.068 L 20.794 20.454 C 21.239 21.091 21.806 21.634 22.462 22.051 C 23.813 22.792 25.467 22.708 26.736 21.834 C 27.399 21.188 27.503 20.16 26.984 19.394 C 26.642 18.906 25.945 18.496 23.964 17.637 C 22.41 17.113 20.995 16.245 19.824 15.097 C 19.267 14.461 18.855 13.712 18.618 12.9 C 18.443 11.976 18.417 11.03 18.542 10.097 C 19.018 7.899 20.817 6.233 23.046 5.927 C 24.153 5.794 25.274 5.829 26.372 6.031 Z M 16.06 7.864 L 16.073 9.661 L 10.35 9.661 L 10.35 25.912 L 6.315 25.912 L 6.315 9.665 L 0.592 9.665 L 0.592 7.899 C 0.577 7.295 0.593 6.69 0.641 6.087 C 0.662 6.059 4.142 6.045 8.36 6.053 L 16.037 6.074 Z" style="fill: rgb(0, 122, 204);"/>
</svg>